<?xml version="1.0" ?><svg data-name="Social Media Icons" id="Social_Media_Icons" viewBox="0 0 512 512" xmlns="http://www.w3.org/2000/svg"><defs><style>.cls-1{fill:#f91927;}</style></defs><g id="Youtube"><path class="cls-1" d="M475.78,110a99.54,99.54,0,0,0-31.64-18.4A114.79,114.79,0,0,0,404.93,85H110.85a114.92,114.92,0,0,0-39.24,6.7,103.73,103.73,0,0,0-32,18.39C.42,143.32.23,196.65,0,254.73-.18,313.15-.37,368.07,39.56,402a104.6,104.6,0,0,0,34.11,19.1,114.89,114.89,0,0,0,37.15,6H404.93a114.79,114.79,0,0,0,39.21-6.69A99.54,99.54,0,0,0,475.78,402C512,370.41,512,321.26,512,256S512,141.59,475.78,110ZM323,271.23,225,327.85a21.68,21.68,0,0,1-32.51-18.77V202.92A21.68,21.68,0,0,1,225,184.15L323,240.77A17.59,17.59,0,0,1,323,271.23Z"/></g></svg>